HIERARCHY
ROOT Hips
{
	OFFSET	0.00	0.00	0.00
	CHANNELS 6 Xposition Yposition Zposition Zrotation Xrotation Yrotation
	JOINT LeftUpLeg
	{
		OFFSET	 0.126116	-0.014019	-0.065224
		CHANNELS 3 Zrotation Xrotation Yrotation
		JOINT LeftLeg
		{
			OFFSET	 0.000000	 0.000000	 0.569914
			CHANNELS 3 Zrotation Xrotation Yrotation
			JOINT LeftFoot
			{
				OFFSET	 0.000000	 0.000000	 0.544423
				CHANNELS 3 Zrotation Xrotation Yrotation
				JOINT LeftToeBase
				{
					OFFSET	 0.000000	 0.000000	 0.207117
					CHANNELS 3 Zrotation Xrotation Yrotation
					End Site
					{
						OFFSET	 0.000000	 0.000000	 0.207117
					}
				}
			}
		}
	}
	JOINT RightUpLeg
	{
		OFFSET	-0.124023	-0.008373	-0.065224
		CHANNELS 3 Zrotation Xrotation Yrotation
		JOINT RightLeg
		{
			OFFSET	 0.000000	 0.000000	 0.570047
			CHANNELS 3 Zrotation Xrotation Yrotation
			JOINT RightFoot
			{
				OFFSET	 0.000000	 0.000000	 0.544354
				CHANNELS 3 Zrotation Xrotation Yrotation
				JOINT RightToeBase
				{
					OFFSET	 0.000000	 0.000000	 0.207540
					CHANNELS 3 Zrotation Xrotation Yrotation
					End Site
					{
						OFFSET	 0.000000	 0.000000	 0.207540
					}
				}
			}
		}
	}
	JOINT Spine
	{
		OFFSET	 0.000184	-0.007763	 0.117403
		CHANNELS 3 Zrotation Xrotation Yrotation
		JOINT Spine1
		{
			OFFSET	 0.000000	 0.000000	 0.137269
			CHANNELS 3 Zrotation Xrotation Yrotation
			JOINT Spine2
			{
				OFFSET	 0.000000	 0.000000	 0.156879
				CHANNELS 3 Zrotation Xrotation Yrotation
				JOINT LeftShoulder
				{
					OFFSET	 0.080501	-0.002496	 0.160144
					CHANNELS 3 Zrotation Xrotation Yrotation
					JOINT LeftArm
					{
						OFFSET	 0.000000	 0.000000	 0.164363
						CHANNELS 3 Zrotation Xrotation Yrotation
						JOINT LeftForeArm
						{
							OFFSET	 0.000000	 0.000000	 0.364576
							CHANNELS 3 Zrotation Xrotation Yrotation
							JOINT LeftHand
							{
								OFFSET	 0.000000	 0.000000	 0.360812
								CHANNELS 3 Zrotation Xrotation Yrotation
								JOINT LeftHandIndex1
								{
									OFFSET	 0.000000	 0.000000	 0.086006
									CHANNELS 3 Zrotation Xrotation Yrotation
									JOINT LeftHandIndex2
									{
										OFFSET	 0.000000	 0.000000	 0.047236
										CHANNELS 3 Zrotation Xrotation Yrotation
										JOINT LeftHandIndex3
										{
											OFFSET	-0.004284	-0.000551	 0.038166
											CHANNELS 3 Zrotation Xrotation Yrotation
											End Site
											{
												OFFSET	-0.004284	-0.000551	 0.038166
											}
										}
									}
								}
							}
						}
					}
				}
				JOINT Neck
				{
					OFFSET	 0.000000	 0.000000	 0.176489
					CHANNELS 3 Zrotation Xrotation Yrotation
					JOINT Head
					{
						OFFSET	 0.000000	-0.001747	 0.077940
						CHANNELS 3 Zrotation Xrotation Yrotation
						End Site
						{
							OFFSET	 0.000000	-0.001747	 0.077940
						}
					}
				}
				JOINT RightShoulder
				{
					OFFSET	-0.080363	 0.000306	 0.159706
					CHANNELS 3 Zrotation Xrotation Yrotation
					JOINT RightArm
					{
						OFFSET	 0.000000	 0.000000	 0.164196
						CHANNELS 3 Zrotation Xrotation Yrotation
						JOINT RightForeArm
						{
							OFFSET	 0.000000	 0.000000	 0.365611
							CHANNELS 3 Zrotation Xrotation Yrotation
							JOINT RightHand
							{
								OFFSET	 0.000000	 0.000000	 0.360648
								CHANNELS 3 Zrotation Xrotation Yrotation
								JOINT RightHandIndex1
								{
									OFFSET	 0.000000	 0.000000	 0.069977
									CHANNELS 3 Zrotation Xrotation Yrotation
									JOINT RightHandIndex2
									{
										OFFSET	 0.000000	 0.000000	 0.052305
										CHANNELS 3 Zrotation Xrotation Yrotation
										JOINT RightHandIndex3
										{
											OFFSET	 0.009002	-0.000782	 0.042196
											CHANNELS 3 Zrotation Xrotation Yrotation
											End Site
											{
												OFFSET	 0.009002	-0.000782	 0.042196
											}
										}
									}
								}
							}
						}
					}
				}
			}
		}
	}
}
MOTION
Frames:    10
Frame Time: 0.03333334
 0.469567	 6.891875	 0.591515	-7.107101	 4.009107	-0.869005	 9.745067	 17.431170	-176.288100	-5.992327	-11.624290	 1.537248	-16.631380	 89.183140	 20.092890	-2.291802	 40.541520	-0.290240	 4.267642	-45.891240	 179.750300	-0.695680	-43.082460	 3.289174	-177.045400	 83.746830	-178.667500	 2.401012	 23.465090	-0.103371	-9.311992	 3.306344	 2.890504	-14.773190	-2.714654	 0.295392	-17.269400	-5.586591	-2.685811	-91.776180	 78.527400	-180.000000	 41.720190	 62.099310	-56.927930	-6.652053	-4.576407	-27.540920	 4.572042	-4.959327	-5.381893	-3.812334	 37.924440	-2.927599	-2.450526	 36.184240	 0.754587	-1.378229	 35.397820	-2.634230	-0.180324	 4.860769	-2.369140	-4.532963	-23.138260	-4.670998	 89.782090	 78.203830	-180.000000	-30.896110	 72.993780	 34.767770	 3.948063	-6.541090	 20.075390	-13.803200	-6.104112	 9.580876	 6.437017	 35.671460	-0.771858	 2.830251	 35.756010	-7.813440	-2.350882	 35.473990	 5.254307
 0.466058	 6.858709	 0.589072	-6.310925	 4.156754	-1.161439	 9.258624	 18.759560	-176.353500	-5.548985	-11.624580	 1.535446	-6.566027	 88.826300	 10.015660	-2.265934	 42.589370	-0.347362	 4.677216	-45.587610	-179.452000	-0.009717	-42.121730	 3.824442	-175.985200	 85.020670	-179.051400	 2.382502	 28.862220	 0.010278	-9.468021	 3.245404	 2.828674	-14.922070	-2.602823	 0.168311	-17.338050	-5.372479	-2.708296	-91.776180	 78.527400	-180.000000	 42.984910	 62.450710	-58.278130	-6.350208	-4.555821	-26.046900	 4.978613	-4.973844	-5.377976	-3.812334	 37.924440	-2.927599	-2.450526	 36.184240	 0.754587	-1.378229	 35.397820	-2.634230	-0.327157	 5.125232	-2.301330	-4.649487	-23.467020	-4.733234	 89.782120	 78.203870	 180.000000	-30.055470	 73.327930	 33.363400	 3.896667	-6.424155	 19.466220	-14.017200	-6.112035	 9.575284	 6.437017	 35.671460	-0.771858	 2.830251	 35.756010	-7.813440	-2.350882	 35.473990	 5.254307
 0.459795	 6.811729	 0.587217	-5.528107	 4.377728	-1.385777	 8.779634	 20.595100	-176.778600	-4.855297	-11.621810	 1.556754	 1.570680	 87.685480	 2.010326	-2.219805	 45.667980	-0.439566	 5.189104	-44.862570	-178.700800	 0.692010	-42.526360	 4.578532	-175.563100	 86.760150	-178.836800	 2.377692	 29.848870	 0.031902	-9.635899	 3.133875	 2.577904	-15.035740	-2.525849	-0.051588	-17.292830	-5.109416	-2.734118	-91.776180	 78.527380	-180.000000	 44.398370	 63.438030	-59.408810	-6.307902	-4.485669	-23.944000	 5.541380	-4.998888	-5.370424	-3.812334	 37.924440	-2.927599	-2.450526	 36.184240	 0.754587	-1.378229	 35.397820	-2.634230	-0.508583	 5.153928	-2.250873	-4.747237	-23.399440	-4.611647	 89.782090	 78.203830	-180.000000	-28.713090	 73.898740	 31.447650	 4.046525	-6.305309	 18.812600	-14.311280	-6.125321	 9.564836	 6.437017	 35.671460	-0.771858	 2.830251	 35.756010	-7.813440	-2.350882	 35.473990	 5.254307
 0.452434	 6.762930	 0.586213	-4.928133	 4.513536	-1.488818	 8.477187	 22.404130	-177.490800	-4.069315	-11.615780	 1.601579	 4.403582	 85.343220	-0.504696	-2.151162	 49.340280	-0.561868	 5.174853	-43.802960	-178.530100	 2.810294	-44.011170	 6.250110	-174.529700	 89.287280	-178.603200	 2.379144	 29.560660	 0.025553	-9.796872	 2.992535	 2.110855	-15.080050	-2.566923	-0.282610	-17.113830	-4.980021	-2.792763	-91.776180	 78.527400	-180.000000	 45.215760	 64.926830	-59.391640	-6.631652	-4.387611	-21.964120	 6.092973	-5.031062	-5.359884	-3.812334	 37.924440	-2.927599	-2.450526	 36.184240	 0.754587	-1.378229	 35.397820	-2.634230	-0.677633	 4.921610	-2.148450	-4.796424	-22.990640	-4.346697	 89.782120	 78.203870	 180.000000	-27.213200	 74.449910	 29.375840	 4.281124	-6.205637	 18.325510	-14.543960	-6.136503	 9.555872	 6.437017	 35.671460	-0.771858	 2.830251	 35.756010	-7.813440	-2.350882	 35.473990	 5.254307
 0.444473	 6.712701	 0.588095	-4.617220	 4.423950	-1.359235	 8.514118	 24.152350	-178.473100	-3.341097	-11.605430	 1.675724	 5.068120	 81.377420	-0.587140	-2.078876	 52.439670	-0.678451	 4.276851	-42.589220	-179.160600	 5.986892	-45.725570	 8.363987	 6.637838	 87.681340	 1.662802	 2.370308	 31.198820	 0.062019	-9.786409	 2.836284	 1.344159	-14.933060	-2.663121	-0.536240	-16.903710	-5.002437	-2.774825	-91.776180	 78.527400	 180.000000	 45.234720	 66.805650	-58.146360	-7.344228	-4.269116	-20.269380	 6.567194	-5.063166	-5.348403	-3.812334	 37.924440	-2.927599	-2.450526	 36.184240	 0.754587	-1.378229	 35.397820	-2.634230	-0.853213	 4.798707	-2.006892	-4.831324	-22.632720	-3.994630	 89.782090	 78.203830	-180.000000	-25.495210	 74.916850	 27.016630	 4.572076	-6.109260	 17.983550	-14.674230	-6.142784	 9.551044	 6.437017	 35.671460	-0.771858	 2.830251	 35.756010	-7.813440	-2.350882	 35.473990	 5.254307
 0.435016	 6.658502	 0.592111	-4.500813	 4.327559	-1.326951	 8.771899	 25.906720	-179.318300	-3.145308	-11.601750	 1.701174	 4.538232	 74.974270	 0.516927	-2.061492	 53.098190	-0.705143	 3.625525	-41.351100	-179.845400	 6.407162	-47.386790	 8.634654	 4.862718	 86.118390	 3.145654	 2.373834	 30.574830	 0.048029	-9.453927	 2.304572	 0.805448	-14.543310	-2.721533	-0.755390	-16.797620	-4.931086	-2.561573	-91.776180	 78.527400	 180.000000	 44.182290	 69.003960	-55.454290	-8.640168	-4.084429	-18.966260	 6.737371	-5.089614	-5.339357	-3.812334	 37.924440	-2.927599	-2.450526	 36.184240	 0.754587	-1.378229	 35.397820	-2.634230	-0.966472	 4.733454	-1.889800	-4.789086	-22.280590	-3.635820	 89.782120	 78.203870	 180.000000	-24.416380	 75.280990	 25.526730	 4.792775	-6.037928	 17.759110	-14.790620	-6.148892	 9.546827	 6.437017	 35.671460	-0.771858	 2.830251	 35.756010	-7.813440	-2.350882	 35.473990	 5.254307
 0.424591	 6.601740	 0.598182	-4.366127	 4.239188	-1.413740	 9.103788	 27.457570	 179.905200	-3.669960	-11.615960	 1.599471	 4.057684	 66.215510	 1.107315	-2.074929	 52.591720	-0.684555	 3.356230	-39.259010	 179.652000	 5.912857	-48.589110	 8.348499	 4.942368	 85.591800	 2.432950	 2.383920	 28.555080	 0.003600	-9.046606	 1.708224	 0.579611	-14.081490	-2.671025	-0.886264	-16.549800	-4.595344	-2.311745	-91.776180	 78.527400	 180.000000	 41.996800	 70.941410	-51.014660	-10.044730	-3.855031	-18.336520	 6.451877	-5.103591	-5.337189	-3.812334	 37.924440	-2.927599	-2.450526	 36.184240	 0.754587	-1.378229	 35.397820	-2.634230	-0.965289	 4.672763	-1.866572	-4.681976	-21.574830	-3.324701	 89.782120	 78.203870	 180.000000	-24.130480	 75.470150	 25.025240	 4.853539	-5.999977	 17.670690	-14.894970	-6.154203	 9.542006	 6.437017	 35.671460	-0.771858	 2.830251	 35.756010	-7.813440	-2.350882	 35.473990	 5.254307
 0.410226	 6.540808	 0.608551	-3.979190	 3.546928	-1.359769	 7.141660	 23.261230	 178.612200	-3.509917	-23.223320	 0.932849	 2.156712	 58.763950	 0.295138	-2.111810	 51.105820	-0.626552	 2.661765	-35.459790	 178.879600	 5.760951	-49.101240	 7.943264	 5.195140	 86.674450	 1.734770	 2.396158	 25.298630	-0.065556	-8.918879	 2.063443	 0.369482	-13.737600	-2.427305	-1.007829	-15.785010	-3.936811	-2.235163	-91.776180	 78.527400	-180.000000	 38.395500	 72.037060	-44.217920	-10.844670	-3.647309	-18.499540	 5.863245	-5.104352	-5.340822	-3.812334	 37.924440	-2.927599	-2.450526	 36.184240	 0.754587	-1.378229	 35.397820	-2.634230	-0.992553	 4.606188	-1.808652	-4.608509	-20.124580	-3.072329	 89.782090	 78.203830	-180.000000	-24.346300	 75.375110	 24.971530	 4.884625	-6.025903	 18.081620	-14.769510	-6.148208	 9.546707	 6.437017	 35.671460	-0.771858	 2.830251	 35.756010	-7.813440	-2.350882	 35.473990	 5.254307
 0.397641	 6.497202	 0.617103	-3.225451	 2.653210	-0.491410	 7.002929	 15.976430	 175.627400	-2.345258	-38.968110	 0.500927	 1.477756	 54.410780	 0.763169	-2.239080	 44.455880	-0.402273	 1.688960	-31.579640	 177.563200	 6.107231	-48.578160	 7.529501	 6.283463	 88.310430	 0.497436	 2.399946	 23.917810	-0.094099	-9.093115	 2.848499	-0.454939	-13.638860	-2.066351	-1.276439	-15.312500	-3.558223	-2.279645	-91.776180	 78.527400	-180.000000	 36.552380	 72.041790	-40.491400	-10.550210	-3.643455	-18.951930	 5.764597	-5.098639	-5.343084	-3.812334	 37.924440	-2.927599	-2.450526	 36.184240	 0.754587	-1.378229	 35.397820	-2.634230	-1.172906	 4.555287	-1.645997	-4.688564	-19.054720	-3.137436	 89.782090	 78.203830	-180.000000	-25.569710	 75.049450	 26.276340	 4.988971	-6.127315	 19.031160	-14.390680	-6.132638	 9.560132	 6.437017	 35.671460	-0.771858	 2.830251	 35.756010	-7.813440	-2.350882	 35.473990	 5.254307
 0.383128	 6.447356	 0.624585	-2.022413	 1.856145	 1.581696	 6.910109	 8.817262	 171.465600	-1.569030	-52.572680	-0.350105	 0.757517	 50.227150	 1.321014	-2.312201	 38.699110	-0.241287	 0.405714	-26.809380	 174.873200	 6.509572	-46.839640	 6.641894	 2.808612	 89.925990	 3.705183	 2.401714	 23.148160	-0.109837	-9.352205	 3.711380	-2.566270	-13.529280	-1.672439	-1.797405	-15.137150	-3.618344	-2.330317	-91.776180	 78.527380	-180.000000	 35.431370	 71.603810	-38.088340	-9.744172	-3.811965	-19.846530	 6.023873	-5.080790	-5.346294	-3.812334	 37.924440	-2.927599	-2.450526	 36.184240	 0.754587	-1.378229	 35.397820	-2.634230	-1.537986	 4.604915	-1.407321	-4.914061	-18.367310	-3.438038	 89.782120	 78.203870	 180.000000	-27.924020	 74.367690	 29.203710	 5.049814	-6.320013	 20.611670	-13.855420	-6.106939	 9.579016	 6.437017	 35.671460	-0.771858	 2.830251	 35.756010	-7.813440	-2.350882	 35.473990	 5.254307
